# Blender 4.1.0
# www.blender.org
o Cube
v 0.792891 0.010294 -0.609066
v 0.792891 0.010294 0.609066
v 0.124619 2.337797 -0.609065
v 0.124619 2.337797 0.609065
v 0.792891 0.488380 -0.609066
v -0.665235 0.521109 0.609066
v 0.792891 0.488380 0.609066
v -0.665235 0.521109 -0.609065
v 0.445592 0.010294 -0.609066
v 0.928996 1.724566 0.609065
v 0.445592 0.010294 0.609066
v 0.928996 1.724566 -0.609065
v 0.445592 0.488380 -0.609066
v 0.445592 0.488380 0.609066
v -0.465619 1.021113 0.609066
v -0.465619 1.021113 -0.609065
v 0.616381 0.875527 -0.609066
v 0.616381 0.875527 0.609066
v -0.702993 0.010607 -0.609065
v -0.786531 0.171808 -0.609065
v -0.786531 0.171808 0.609066
v -0.702993 0.010607 0.609066
v 0.124619 2.337797 -0.000000
v 0.792891 0.010294 0.000000
v 0.792891 0.488380 0.000000
v -0.665235 0.521109 0.000000
v 0.445592 0.010294 0.000000
v 0.928996 1.724566 -0.000000
v -0.465619 1.021113 0.000000
v 0.616381 0.875527 0.000000
v -0.702993 0.010607 0.000000
v -0.786531 0.171808 0.000000
v 0.813753 1.812424 0.248930
v 0.216650 2.267636 0.251014
v 0.216650 2.267636 0.357069
v 0.813753 1.812424 0.354985
v 0.813753 1.812424 -0.360136
v 0.216650 2.267636 -0.358051
v 0.216650 2.267636 -0.251996
v 0.813753 1.812424 -0.254081
v -0.021804 1.954856 0.251014
v 0.575299 1.499643 0.248930
v 0.575299 1.499643 0.354985
v -0.021804 1.954856 0.357069
v -0.021804 1.954856 -0.358051
v 0.575299 1.499643 -0.360136
v 0.575299 1.499643 -0.254081
v -0.021804 1.954856 -0.251996
vn 0.7953 -0.6063 -0.0000
vn -0.0000 -0.0000 1.0000
vn -0.9125 0.4091 -0.0000
vn -0.0000 -1.0000 -0.0000
vn -0.0000 -0.0000 -1.0000
vn 1.0000 -0.0000 -0.0000
vn -0.9447 0.3280 -0.0000
vn -0.9287 0.3708 -0.0000
vn 0.9384 -0.3455 -0.0000
vn 0.9099 0.4148 -0.0000
vn -0.8879 -0.4601 -0.0000
vn -0.0003 -1.0000 -0.0000
vn -0.7953 0.6063 -0.0000
vn 0.6063 0.7953 -0.0000
vn 0.0022 -0.0017 1.0000
vn -0.0022 0.0017 -1.0000
vt 0.551225 0.373412
vt 0.551170 0.353605
vt 0.624624 0.353401
vt 0.624679 0.373208
vt 0.491129 0.162042
vt 0.550786 0.320134
vt 0.401486 0.435865
vt 0.289280 0.190855
vt 0.113941 0.796298
vt 0.113941 0.526818
vt 0.227690 0.526818
vt 0.227690 0.796298
vt 0.664919 0.214701
vt 0.664919 0.279563
vt 0.551170 0.279563
vt 0.551170 0.214701
vt 0.292732 0.453168
vt 0.299799 0.542175
vt 0.235141 0.547309
vt 0.228074 0.458302
vt 0.113941 0.000192
vt 0.113941 0.089479
vt 0.000192 0.089479
vt 0.000192 0.000192
vt 0.457935 0.000713
vt 0.458652 0.089998
vt 0.251251 0.097777
vt 0.228074 0.032726
vt 0.243433 0.002496
vt 0.522794 0.000192
vt 0.523512 0.089476
vt 0.113941 0.965902
vt 0.113941 0.896845
vt 0.227690 0.896845
vt 0.227690 0.965902
vt 0.477317 0.627887
vt 0.386892 0.881744
vt 0.228074 0.779466
vt 0.273725 0.616776
vt 0.506573 0.436249
vt 0.524508 0.465025
vt 0.507089 0.531849
vt 0.113941 0.337916
vt 0.113941 0.168943
vt 0.227690 0.168943
vt 0.227690 0.337916
vt 0.227690 0.089479
vt 0.113941 0.999810
vt 0.000192 0.999810
vt 0.000192 0.965902
vt 0.664919 0.000192
vt 0.551170 0.000192
vt 0.778667 0.000192
vt 0.778667 0.214701
vt 0.227690 0.999810
vt 0.000192 0.168943
vt 0.000192 0.337916
vt 0.000192 0.896845
vt 0.000192 0.796298
vt 0.227690 0.000192
vt 0.778667 0.279563
vt 0.000192 0.526818
vt 0.624624 0.614146
vt 0.624624 0.633953
vt 0.551170 0.633953
vt 0.551170 0.614146
vt 0.067062 0.505205
vt 0.067451 0.364980
vt 0.047255 0.505205
vt 0.047644 0.364980
vt 0.180810 0.505205
vt 0.181200 0.364980
vt 0.161004 0.505205
vt 0.161393 0.364980
vt 0.764904 0.540307
vt 0.624679 0.540307
vt 0.624624 0.520501
vt 0.764850 0.520501
vt 0.764905 0.373208
vt 0.764849 0.353401
vt 0.764904 0.446662
vt 0.624679 0.446662
vt 0.551225 0.540511
vt 0.551170 0.520705
vt 0.624624 0.279947
vt 0.764849 0.279947
vt 0.764904 0.613762
vt 0.624679 0.613762
vt 0.624624 0.634337
vt 0.624624 0.654144
vt 0.551170 0.654144
vt 0.551170 0.634337
vt 0.624624 0.447046
vt 0.764850 0.447047
s 0
f 38/1/1 39/2/1 48/3/1 45/4/1
f 18/5/2 10/6/2 4/7/2 15/8/2
f 29/9/3 23/10/3 3/11/3 16/12/3
f 27/13/4 24/14/4 2/15/4 11/16/4
f 9/17/5 13/18/5 5/19/5 1/20/5
f 24/21/6 25/22/6 7/23/6 2/24/6
f 11/25/2 14/26/2 6/27/2 21/28/2 22/29/2
f 2/30/2 7/31/2 14/26/2 11/25/2
f 32/32/7 26/33/7 8/34/7 20/35/7
f 16/36/5 3/37/5 12/38/5 17/39/5
f 19/40/5 20/41/5 8/42/5 13/18/5 9/17/5
f 8/42/5 16/36/5 17/39/5 13/18/5
f 26/33/8 29/9/8 16/12/8 8/34/8
f 14/26/2 18/5/2 15/8/2 6/27/2
f 28/43/9 30/44/9 17/45/9 12/46/9
f 25/22/10 5/47/10 17/45/10 30/44/10
f 14/26/2 7/31/2 18/5/2
f 13/18/5 17/39/5 5/19/5
f 31/48/11 22/49/11 21/50/11 32/32/11
f 31/51/12 27/13/12 11/16/12 22/52/12
f 19/53/12 9/54/12 27/13/12 31/51/12
f 19/55/11 31/48/11 32/32/11 20/35/11
f 7/23/10 25/22/10 30/44/10 18/56/10
f 10/57/9 18/56/9 30/44/9 28/43/9
f 6/58/8 15/59/8 29/9/8 26/33/8
f 21/50/7 6/58/7 26/33/7 32/32/7
f 1/60/6 5/47/6 25/22/6 24/21/6
f 9/54/4 1/61/4 24/14/4 27/13/4
f 15/59/3 4/62/3 23/10/3 29/9/3
f 36/63/13 33/64/13 42/65/13 43/66/13
f 28/43/14 23/10/14 34/67/14 33/68/14
f 23/10/14 4/62/14 35/69/14 34/67/14
f 4/62/14 10/57/14 36/70/14 35/69/14
f 10/57/14 28/43/14 33/68/14 36/70/14
f 12/46/14 3/11/14 38/71/14 37/72/14
f 3/11/14 23/10/14 39/73/14 38/71/14
f 23/10/14 28/43/14 40/74/14 39/73/14
f 28/43/14 12/46/14 37/72/14 40/74/14
f 42/75/14 41/76/14 44/77/14 43/78/14
f 46/79/14 45/4/14 48/3/14 47/80/14
f 37/81/15 38/82/15 45/4/15 46/79/15
f 34/83/1 35/84/1 44/77/1 41/76/1
f 39/85/16 40/86/16 47/80/16 48/3/16
f 33/87/15 34/88/15 41/76/15 42/75/15
f 40/89/13 37/90/13 46/91/13 47/92/13
f 35/93/16 36/94/16 43/78/16 44/77/16
